<?xml version="1.0" encoding="UTF-8"?>
<svg width="40px" height="40px" viewBox="0 0 40 40" version="1.1" xmlns="http://www.w3.org/2000/svg" xmlns:xlink="http://www.w3.org/1999/xlink">
    <title>DA048282-B7DF-411D-9F30-64DB864D8082</title>
    <g id="Widget" stroke="none" stroke-width="1" fill="none" fill-rule="evenodd">
        <g id="GlobalPassWidgetNew-20200921" transform="translate(-509.000000, -2954.000000)">
            <g id="Group-31" transform="translate(406.000000, 2763.000000)">
                <g id="Icons/note1-Copy-2" transform="translate(103.000000, 191.000000)">
                    <g id="Group-24" stroke="#1ACB7D" stroke-width="3">
                        <g id="Group-24-Copy">
                            <circle id="Oval" cx="20" cy="20" r="18.5"></circle>
                        </g>
                    </g>
                    <g id="lightbulb-on" transform="translate(20.000000, 20.000000) rotate(-180.000000) translate(-20.000000, -20.000000) translate(8.750000, 8.750000)" fill="#222222" fill-rule="nonzero">
                        <path d="M11.25,5.11363636 C14.6390201,5.11363636 17.3863636,7.86097994 17.3863636,11.25 C17.3863636,13.5204545 16.1488636,15.5045455 14.3181818,16.5681818 L14.3181818,18.4090909 C14.3181818,18.9739276 13.8602912,19.4318182 13.2954545,19.4318182 L9.20454545,19.4318182 C8.63970878,19.4318182 8.18181818,18.9739276 8.18181818,18.4090909 L8.18181818,16.5681818 C6.35113636,15.5045455 5.11363636,13.5204545 5.11363636,11.25 C5.11363636,7.86097994 7.86097994,5.11363636 11.25,5.11363636 M13.2954545,20.4545455 L13.2954545,21.4772727 C13.2954545,22.0421094 12.8375639,22.5 12.2727273,22.5 L10.2272727,22.5 C9.66243605,22.5 9.20454545,22.0421094 9.20454545,21.4772727 L9.20454545,20.4545455 L13.2954545,20.4545455 M19.4318182,10.2272727 L22.5,10.2272727 L22.5,12.2727273 L19.4318182,12.2727273 L19.4318182,10.2272727 M0,10.2272727 L3.06818182,10.2272727 L3.06818182,12.2727273 L0,12.2727273 L0,10.2272727 M12.2727273,0 L12.2727273,3.06818182 L10.2272727,3.06818182 L10.2272727,0 L12.2727273,0 M4.00909091,2.55681818 L6.1875,4.74545455 L4.73522727,6.1875 L2.55681818,4.01931818 L4.00909091,2.55681818 M16.3125,4.73522727 L18.4806818,2.55681818 L19.9431818,4.01931818 L17.7647727,6.1875 L16.3125,4.73522727 Z" id="Shape"></path>
                    </g>
                </g>
            </g>
        </g>
    </g>
</svg>