<?xml version="1.0" encoding="UTF-8"?>
<svg width="40px" height="41px" viewBox="0 0 40 41" version="1.1" xmlns="http://www.w3.org/2000/svg" xmlns:xlink="http://www.w3.org/1999/xlink">
    <title>4E73AF07-78DA-4355-8C3E-C9CB98B2795F</title>
    <g id="Widget" stroke="none" stroke-width="1" fill="none" fill-rule="evenodd">
        <g id="GlobalPassWidgetNew-20200921" transform="translate(-509.000000, -3014.000000)">
            <g id="Group-31" transform="translate(406.000000, 2763.000000)">
                <g id="Icons/note1-Copy-3" transform="translate(103.000000, 251.202532)">
                    <g id="Group-24" stroke="#1ACB7D" stroke-width="3">
                        <g id="Group-24-Copy">
                            <circle id="Oval" cx="20" cy="20" r="18.5"></circle>
                        </g>
                    </g>
                    <g id="video-check" transform="translate(8.750000, 12.500000)" fill="#222222" fill-rule="nonzero">
                        <path d="M17.5,5.625 L17.5,1.25 C17.5,0.5625 16.9375,0 16.25,0 L1.25,0 C0.5625,0 0,0.5625 0,1.25 L0,13.75 C0,14.4375 0.5625,15 1.25,15 L16.25,15 C16.9375,15 17.5,14.4375 17.5,13.75 L17.5,9.375 L22.5,14.375 L22.5,0.625 L17.5,5.625 M7.4125,11.25 L3.75,7.25 L5.3,5.7 L7.4125,7.825 L12.2,3.0375 L13.75,4.9125 L7.4125,11.25 Z" id="Shape"></path>
                    </g>
                </g>
            </g>
        </g>
    </g>
</svg>