<svg width="40" height="40" viewBox="0 0 40 40" fill="none" xmlns="http://www.w3.org/2000/svg">
<circle cx="20" cy="20" r="18.5" stroke="#F85151" stroke-width="3"/>
<path fill-rule="evenodd" clip-rule="evenodd" d="M10.625 20C10.625 14.8223 14.8223 10.625 20 10.625C22.4864 10.625 24.871 11.6127 26.6291 13.3709C28.3873 15.129 29.375 17.5136 29.375 20C29.375 25.1777 25.1777 29.375 20 29.375C14.8223 29.375 10.625 25.1777 10.625 20ZM21.9601 23.1619C22.2925 23.4924 22.8294 23.4924 23.1618 23.1619C23.4922 22.8295 23.4922 22.2926 23.1618 21.9602L20.8521 19.6506V14.8864C20.8521 14.4157 20.4706 14.0341 19.9999 14.0341C19.5292 14.0341 19.1476 14.4157 19.1476 14.8864V20C19.1485 20.2278 19.2406 20.4457 19.4033 20.6051L21.9601 23.1619Z" fill="#222222"/>
</svg>
