<svg width="40" height="40" viewBox="0 0 40 40" fill="none" xmlns="http://www.w3.org/2000/svg">
<circle cx="20" cy="20" r="18.5" stroke="#1ACB7D" stroke-width="3"/>
<path fill-rule="evenodd" clip-rule="evenodd" d="M14.5 9.375C13.3954 9.375 12.5 10.2704 12.5 11.375V28.5363C12.5 29.6408 13.3954 30.5363 14.5 30.5363H26.125C27.2296 30.5363 28.125 29.6408 28.125 28.5363V11.375C28.125 10.2704 27.2296 9.375 26.125 9.375H14.5ZM14.4136 25.507H20.3123V26.1348H14.4136V25.507ZM14.4136 28.2972H26.0715V27.6694H14.4136V28.2972ZM26.211 24.3909H14.4136V23.7631H26.211V24.3909ZM14.4136 22.647H26.211V22.0193H14.4136V22.647ZM26.211 20.9032H14.4136V20.2754H26.211V20.9032Z" fill="#222222"/>
</svg>
