<svg width="40" height="40" viewBox="0 0 40 40" fill="none" xmlns="http://www.w3.org/2000/svg">
<circle cx="20" cy="20" r="18.5" stroke="#F85151" stroke-width="3"/>
<path fill-rule="evenodd" clip-rule="evenodd" d="M20.8842 17.2817H19.4063L19.109 16.642H16.7572L16.4689 17.2817H15L17.8296 11.875H18.0459L20.8842 17.2817ZM17.2256 15.5786L17.1445 15.7227H18.7122L18.6311 15.5786L17.9644 14.1638H17.8923L17.2256 15.5786Z" fill="white"/>
<path fill-rule="evenodd" clip-rule="evenodd" d="M20.8579 15.2632L24.0119 11.875H24.9399L24.9312 15.047H25.6249V16.1642H24.9312V17.2817H23.6245V16.1642H20.8579V15.2632ZM22.579 15.047H23.6242V13.8127L22.8043 14.7226C22.7232 14.8037 22.579 14.9028 22.579 14.9028V15.047Z" fill="white"/>
<path fill-rule="evenodd" clip-rule="evenodd" d="M13.6806 11.875H26.3194C27.3125 11.875 28.125 12.6785 28.125 13.6806V26.3194C28.125 27.3166 27.3166 28.125 26.3194 28.125H13.6806C12.6834 28.125 11.875 27.3166 11.875 26.3194V13.6806C11.875 12.6785 12.6785 11.875 13.6806 11.875ZM24.375 17.5H15.625V15.625H24.375V17.5ZM15.625 21.25H24.375V19.375H15.625V21.25ZM15.625 24.375H21.875V22.5H15.625V24.375Z" fill="#222222"/>
</svg>
