<?xml version="1.0" encoding="UTF-8"?>
<svg width="40px" height="40px" viewBox="0 0 40 40" version="1.1" xmlns="http://www.w3.org/2000/svg" xmlns:xlink="http://www.w3.org/1999/xlink">
    <title>03F1FCB1-52BA-480C-B88E-BEBFECED3697</title>
    <g id="Widget" stroke="none" stroke-width="1" fill="none" fill-rule="evenodd">
        <g id="GlobalPassWidgetNew-20200921" transform="translate(-509.000000, -3135.000000)">
            <g id="Group-31" transform="translate(406.000000, 2763.000000)">
                <g id="Group-24" transform="translate(103.000000, 372.000000)">
                    <circle id="Oval" stroke="#F85151" stroke-width="3" cx="20" cy="20" r="18.5"></circle>
                    <g id="noun_Cap_3381602" transform="translate(6.875000, 10.625000)" fill="#222222" fill-rule="nonzero">
                        <g id="Group">
                            <path d="M24.7564655,13.9849138 C22.8556034,15.5237069 15.8405172,20.637931 10.9525862,17.8318966 C9.1875,16.7909483 7.46767241,15.75 5.70258621,14.6637931 C5.65732759,14.6637931 3.12284483,16.2478448 2.53448276,16.3836207 C1.26724138,16.700431 0.362068966,16.2025862 0.181034483,14.8448276 C0.181034483,14.8448276 -0.0452586207,13.5775862 3.30387931,12.2650862 L6.7887931,10.9073276 C6.96982759,10.862069 7.19612069,10.862069 7.37715517,10.862069 C8.1012931,10.862069 8.82543103,10.9978448 9.54956897,11.1336207 C9.54956897,11.1336207 12.8081897,11.8125 14.075431,12.1293103 C15.6142241,12.5366379 19.4612069,13.6228448 19.6422414,13.6681034 C20.6831897,13.9849138 21.7693966,14.3017241 22.9008621,14.3017241 C23.4892241,14.3017241 24.7112069,13.9849138 24.7564655,13.9849138 Z" id="Path"></path>
                            <path d="M24.8469828,4.43534483 C23.7607759,2.89655172 22.1767241,1.76508621 20.4116379,1.13146552 C18.6465517,0.452586207 16.6551724,0.226293103 14.7543103,0.452586207 C12.9439655,0.63362069 11.0431034,1.26724138 9.68534483,2.53448276 C8.05603448,4.07327586 7.33189655,6.38146552 6.96982759,8.50862069 C6.96982759,8.59913793 6.7887931,10.4094828 6.7887931,10.4094828 C7.78448276,10.2737069 8.87068966,10.5 9.86637931,10.6810345 C11.3146552,10.9525862 12.762931,11.2693966 14.1659483,11.6314655 C15.8405172,12.0387931 17.4698276,12.4913793 19.0991379,12.9892241 C20.9094828,13.5323276 22.5840517,14.2112069 24.4849138,13.5775862 C24.8017241,13.487069 25.2543103,13.3060345 25.4353448,12.9892241 C26.1142241,11.9482759 26.0689655,10.3189655 26.0689655,9.09698276 C26.0689655,7.42241379 25.7974138,5.79310345 24.8469828,4.43534483 Z" id="Path"></path>
                        </g>
                    </g>
                    <line x1="7.1875" y1="32.8125" x2="33.125" y2="6.875" id="Line" stroke="#F85151" stroke-width="3" stroke-linecap="square"></line>
                </g>
            </g>
        </g>
    </g>
</svg>