<svg width="40" height="40" viewBox="0 0 40 40" fill="none" xmlns="http://www.w3.org/2000/svg">
<circle cx="20" cy="20" r="18.5" stroke="#1ACB7D" stroke-width="3"/>
<path fill-rule="evenodd" clip-rule="evenodd" d="M10.6077 18.7507C10.6077 13.5726 14.8053 9.375 19.9829 9.375C25.16 9.375 29.3574 13.5726 29.3577 18.7507C29.3577 21.9127 27.435 24.5735 25.3582 26.6515C24.9177 27.0918 19.9829 31.5626 19.9829 31.5626C19.9829 31.5626 15.4209 27.435 14.0578 26.0159C12.1741 24.056 10.6077 21.682 10.6077 18.7507ZM23.7792 23.5879V18.8858H24.9798L23.1804 17.0514V14.6894H21.7813V15.6255L19.9821 13.7918L14.9862 18.8858H16.1849V23.5884H19.1045V20.1042H20.861V23.5879H23.7792Z" fill="#222222"/>
</svg>
