<svg width="40" height="40" viewBox="0 0 32 32" fill="none" xmlns="http://www.w3.org/2000/svg">
<path fill-rule="evenodd" clip-rule="evenodd" d="M28.881 19.6537H22.6159L22.6754 19.1958C22.7816 18.3286 22.8985 17.1886 22.8985 15.9999C22.8985 14.8111 22.7816 13.6614 22.6754 12.804L22.6159 12.346H28.881L28.959 12.6481C29.2523 13.8076 29.3975 14.9281 29.3975 15.9999C29.3975 17.0717 29.2523 18.1922 28.959 19.3419L28.881 19.6537ZM27.5852 22.7034C25.958 25.4998 23.3857 27.6142 20.336 28.6568L19.3528 28.9978L19.8488 28.0819C20.7842 26.3378 21.5344 24.4281 22.0508 22.3916L22.1288 22.0896H27.936L27.5852 22.7034ZM16.0001 29.6409L15.6601 29.1537C14.2657 27.1368 13.2037 24.9347 12.5022 22.6157L12.3463 22.0896H19.6452L19.4883 22.6157C18.7877 24.9347 17.7257 27.1368 16.3314 29.1537L16.0001 29.6409ZM11.6642 28.6568C8.60476 27.6142 6.02271 25.4998 4.40625 22.7034L4.05548 22.0896H9.86168L9.94061 22.3916C10.4668 24.4281 11.2063 26.3378 12.1514 28.0819L12.6386 28.9978L11.6642 28.6568ZM3.03237 19.3419C2.74981 18.1922 2.60268 17.0717 2.60268 15.9999C2.60268 14.9281 2.74981 13.8076 3.03237 12.6578L3.11032 12.346H9.37448L9.31602 12.804C9.16109 14.0804 9.09191 15.0645 9.09191 15.9999C9.09191 16.9352 9.16109 17.9193 9.31602 19.1958L9.37448 19.6537H3.11032L3.03237 19.3419ZM4.40625 9.29627C6.02271 6.49986 8.60476 4.3855 11.6642 3.34293L12.6386 3.00191L12.1514 3.91781C11.2063 5.66191 10.4668 7.57165 9.94061 9.60806L9.86168 9.91011H4.05548L4.40625 9.29627ZM16.0001 2.3588L16.3314 2.84598C17.7257 4.8629 18.7877 7.06495 19.4883 9.38393L19.6452 9.91008H12.3463L12.5022 9.38393C13.2037 7.06495 14.2657 4.8629 15.6601 2.84598L16.0001 2.3588ZM20.4627 15.9999C20.4627 17.2081 20.3273 18.3481 20.2006 19.3029L20.1509 19.6537H11.8406L11.7909 19.3029C11.6643 18.3481 11.5278 17.1983 11.5278 15.9999C11.5278 14.7624 11.675 13.5835 11.7909 12.6968L11.8406 12.346H20.1509L20.2006 12.6968C20.3848 14.0122 20.4627 15.0352 20.4627 15.9999ZM20.336 3.34293C23.3857 4.3855 25.958 6.49986 27.5852 9.29627L27.936 9.91011H22.1288L22.0508 9.60806C21.5344 7.57165 20.7842 5.66191 19.8488 3.91781L19.3528 3.00191L20.336 3.34293ZM15.9816 0.166504C7.26106 0.166504 0.166748 7.26958 0.166748 15.9998C0.166748 24.7301 7.26106 31.8332 15.9816 31.8332C24.7206 31.8332 31.8334 24.7301 31.8334 15.9998C31.8334 7.26958 24.7206 0.166504 15.9816 0.166504Z" fill="white"/>
</svg>
