<svg width="252" height="40" viewBox="0 0 252 40" fill="none" xmlns="http://www.w3.org/2000/svg">
<path fill-rule="evenodd" clip-rule="evenodd" d="M56.4803 27.2405C55.519 27.4829 54.4713 27.6041 53.3385 27.6041C52.1626 27.6041 51.0814 27.4124 50.0936 27.0266C49.1047 26.6419 48.2548 26.099 47.5428 25.4002C46.8296 24.7015 46.2734 23.8642 45.8718 22.8859C45.4714 21.9089 45.2712 20.8218 45.2712 19.6233C45.2712 18.4101 45.475 17.3131 45.8826 16.3286C46.2901 15.3442 46.8547 14.5056 47.5728 13.8143C48.292 13.1229 49.1359 12.5911 50.1032 12.2201C51.0706 11.8503 52.1146 11.6636 53.2342 11.6636C54.397 11.6636 55.4746 11.8466 56.4695 12.2102C57.4645 12.5738 58.2736 13.0623 58.8969 13.6745L56.6565 16.3064C56.3101 15.8933 55.8546 15.5544 55.2876 15.291C54.7206 15.0263 54.0781 14.8952 53.3589 14.8952C52.7368 14.8952 52.1626 15.0115 51.6376 15.2477C51.1113 15.4827 50.657 15.8117 50.2686 16.2322C49.8815 16.6527 49.5806 17.1523 49.366 17.7299C49.1526 18.3074 49.046 18.9382 49.046 19.6233C49.046 20.3221 49.1419 20.964 49.336 21.549C49.529 22.134 49.8155 22.6361 50.1967 23.0578C50.5767 23.4783 51.0466 23.8073 51.6076 24.041C52.1662 24.2773 52.8063 24.3948 53.5243 24.3948C53.9403 24.3948 54.3334 24.3626 54.7074 24.2983C55.0802 24.234 55.4255 24.1301 55.7443 23.9879V21.2287H52.9441V18.2753H59V26.2981C58.2808 26.684 57.4417 26.9981 56.4803 27.2405Z" fill="#525156"/>
<path fill-rule="evenodd" clip-rule="evenodd" d="M61.0737 27.2186V12.0708H64.6411V24.0315H70.3229V27.2186H61.0737Z" fill="#525156"/>
<path fill-rule="evenodd" clip-rule="evenodd" d="M82.0394 19.5808C82.0394 18.9253 81.9363 18.3119 81.7289 17.7405C81.5216 17.1704 81.2339 16.6806 80.8683 16.2749C80.5015 15.868 80.0603 15.5465 79.5413 15.3115C79.0223 15.0765 78.4529 14.959 77.8296 14.959C77.2086 14.959 76.6404 15.0765 76.1286 15.3115C75.6179 15.5465 75.1756 15.868 74.8028 16.2749C74.4288 16.6806 74.1423 17.1704 73.941 17.7405C73.7408 18.3119 73.6413 18.9253 73.6413 19.5808C73.6413 20.266 73.7444 20.8955 73.9517 21.4743C74.1591 22.0518 74.4456 22.5465 74.8136 22.9609C75.178 23.3752 75.6179 23.6992 76.1286 23.9354C76.6404 24.1704 77.2086 24.2879 77.8296 24.2879C78.4529 24.2879 79.0187 24.1704 79.5305 23.9354C80.0424 23.6992 80.4847 23.3752 80.8587 22.9609C81.2315 22.5465 81.5216 22.0518 81.7289 21.4743C81.9363 20.8955 82.0394 20.266 82.0394 19.5808ZM85.8345 19.5808C85.8345 20.7792 85.6343 21.8737 85.234 22.8644C84.8324 23.8563 84.2762 24.7059 83.5642 25.4109C82.8521 26.1171 82.0058 26.6637 81.0229 27.0483C80.0424 27.433 78.9767 27.6259 77.8296 27.6259C76.6824 27.6259 75.6215 27.433 74.647 27.0483C73.6725 26.6637 72.8286 26.1171 72.1177 25.4109C71.4045 24.7059 70.8483 23.8563 70.4467 22.8644C70.0464 21.8737 69.8462 20.7792 69.8462 19.5808C69.8462 18.3688 70.0464 17.273 70.4467 16.296C70.8483 15.3202 71.4045 14.4878 72.1177 13.8027C72.8286 13.1187 73.6725 12.5919 74.647 12.2208C75.6215 11.8498 76.6824 11.6643 77.8296 11.6643C78.9767 11.6643 80.0424 11.8498 81.0229 12.2208C82.0058 12.5919 82.8521 13.1187 83.5642 13.8027C84.2762 14.4878 84.8324 15.3202 85.234 16.296C85.6343 17.273 85.8345 18.3688 85.8345 19.5808Z" fill="#525156"/>
<path fill-rule="evenodd" clip-rule="evenodd" d="M95.2498 22.4685C95.2498 21.8414 95.022 21.4073 94.5653 21.1637C94.1098 20.9213 93.5008 20.8001 92.7397 20.8001H90.7702V24.2655H92.7612C93.037 24.2655 93.3246 24.242 93.6219 24.1913C93.9192 24.1418 94.1877 24.0515 94.4298 23.9241C94.6732 23.7955 94.8698 23.6137 95.022 23.3775C95.1742 23.1425 95.2498 22.8407 95.2498 22.4685ZM94.7727 16.4566C94.7727 15.9433 94.5821 15.5686 94.2021 15.3324C93.8221 15.0974 93.2587 14.9799 92.5119 14.9799H90.7702V18.1039H92.6773C93.3414 18.1039 93.8569 17.9642 94.2237 17.6872C94.5893 17.4089 94.7727 16.9983 94.7727 16.4566ZM98.7955 22.811C98.7955 23.6384 98.6361 24.3347 98.3196 24.8975C98.0008 25.4614 97.5788 25.9141 97.0538 26.2567C96.5276 26.598 95.9306 26.8441 95.2605 26.9938C94.5893 27.1434 93.9012 27.2189 93.1964 27.2189H87.3479V12.071H93.1964C93.7634 12.071 94.3435 12.1316 94.9381 12.2516C95.5327 12.3741 96.0721 12.5806 96.5563 12.8725C97.0394 13.1656 97.4338 13.5613 97.7383 14.0598C98.0415 14.5594 98.195 15.1939 98.195 15.9644C98.195 16.8066 97.9732 17.5016 97.5309 18.0508C97.0886 18.5999 96.5084 18.9957 95.7892 19.2381V19.2813C96.2039 19.3518 96.5935 19.4842 96.9603 19.6759C97.3259 19.8688 97.6448 20.1162 97.9145 20.4154C98.1842 20.7147 98.3988 21.0635 98.5582 21.4642C98.7164 21.8637 98.7955 22.3126 98.7955 22.811Z" fill="#525156"/>
<path fill-rule="evenodd" clip-rule="evenodd" d="M106.324 16.1145L104.456 21.3138H108.148L106.324 16.1145ZM110.264 27.2194L109.123 24.245H103.441L102.362 27.2194H98.5059L104.665 12.0703H108.106L114.204 27.2194H110.264Z" fill="#525156"/>
<path fill-rule="evenodd" clip-rule="evenodd" d="M114.598 27.2186V12.0708H118.165V24.0315H123.847V27.2186H114.598Z" fill="#525156"/>
<path fill-rule="evenodd" clip-rule="evenodd" d="M137.535 24.8659C136.954 25.6785 136.2 26.3377 135.274 26.8447C134.348 27.3506 133.235 27.6041 131.935 27.6041C130.816 27.6041 129.781 27.4087 128.834 27.0154C127.887 26.6234 127.071 26.0742 126.388 25.368C125.703 24.6619 125.168 23.8196 124.78 22.8426C124.393 21.8668 124.2 20.7933 124.2 19.6233C124.2 18.4397 124.397 17.3588 124.791 16.3818C125.184 15.4047 125.731 14.5699 126.429 13.8773C127.126 13.1872 127.953 12.648 128.908 12.2634C129.862 11.8775 130.899 11.6858 132.018 11.6858C132.516 11.6858 133.02 11.7353 133.532 11.8354C134.044 11.9344 134.534 12.084 135.005 12.2844C135.474 12.4835 135.903 12.7296 136.29 13.0227C136.678 13.3146 137.01 13.6535 137.285 14.0381L135.668 15.3219C135.309 14.8086 134.8 14.3844 134.143 14.0492C133.487 13.7141 132.778 13.5471 132.018 13.5471C131.161 13.5471 130.39 13.7079 129.706 14.0282C129.021 14.3485 128.438 14.7876 127.953 15.3441C127.47 15.9007 127.096 16.545 126.834 17.2796C126.571 18.0155 126.439 18.7959 126.439 19.6233C126.439 20.4791 126.568 21.2781 126.823 22.0189C127.078 22.7622 127.445 23.4065 127.922 23.9569C128.399 24.5048 128.979 24.9377 129.665 25.2506C130.348 25.5634 131.113 25.7205 131.956 25.7205C132.785 25.7205 133.539 25.5498 134.215 25.2073C134.894 24.8659 135.454 24.3663 135.896 23.7095L137.535 24.8659Z" fill="#525156"/>
<path fill-rule="evenodd" clip-rule="evenodd" d="M151.138 19.6231C151.138 18.7957 151.007 18.0153 150.744 17.2794C150.481 16.546 150.108 15.9004 149.624 15.3439C149.14 14.7873 148.556 14.3483 147.872 14.0292C147.187 13.7076 146.418 13.5469 145.559 13.5469C144.717 13.5469 143.952 13.7076 143.269 14.0292C142.583 14.3483 142.003 14.7873 141.526 15.3439C141.049 15.9004 140.678 16.546 140.417 17.2794C140.153 18.0153 140.023 18.7957 140.023 19.6231C140.023 20.4653 140.153 21.2568 140.417 21.9989C140.678 22.7409 141.052 23.3853 141.536 23.9344C142.021 24.4848 142.601 24.9151 143.278 25.2293C143.955 25.5434 144.717 25.6992 145.559 25.6992C146.403 25.6992 147.169 25.5434 147.862 25.2293C148.552 24.9151 149.14 24.4848 149.624 23.9344C150.108 23.3853 150.481 22.7409 150.744 21.9989C151.007 21.2568 151.138 20.4653 151.138 19.6231ZM153.358 19.6231C153.358 20.793 153.16 21.8665 152.766 22.8436C152.372 23.8206 151.829 24.6616 151.138 25.369C150.446 26.074 149.624 26.6231 148.67 27.0164C147.717 27.4084 146.679 27.6039 145.559 27.6039C144.44 27.6039 143.406 27.4084 142.459 27.0164C141.513 26.6231 140.693 26.074 140.002 25.369C139.31 24.6616 138.771 23.8206 138.384 22.8436C137.997 21.8665 137.804 20.793 137.804 19.6231C137.804 18.4395 137.997 17.3586 138.384 16.3815C138.771 15.4045 139.31 14.5697 140.002 13.8771C140.693 13.187 141.513 12.6477 142.459 12.2631C143.406 11.8772 144.44 11.6855 145.559 11.6855C146.679 11.6855 147.717 11.8772 148.67 12.2631C149.624 12.6477 150.446 13.187 151.138 13.8771C151.829 14.5697 152.372 15.4045 152.766 16.3815C153.16 17.3586 153.358 18.4395 153.358 19.6231Z" fill="#525156"/>
<path fill-rule="evenodd" clip-rule="evenodd" d="M162.918 23.7102H162.959L167.293 12.071H170.487V27.2189H168.434V14.5532H168.391L163.519 27.2189H162.212L157.36 14.5532H157.318V27.2189H155.328V12.071H158.521L162.918 23.7102Z" fill="#525156"/>
<path fill-rule="evenodd" clip-rule="evenodd" d="M175.277 18.7678H177.455C177.953 18.7678 178.412 18.7208 178.835 18.6281C179.256 18.5366 179.619 18.3931 179.923 18.2002C180.227 18.0085 180.462 17.7549 180.628 17.4408C180.795 17.1279 180.878 16.742 180.878 16.2857C180.878 15.8293 180.791 15.4471 180.618 15.1404C180.445 14.8337 180.21 14.5839 179.913 14.3922C179.615 14.1993 179.259 14.0632 178.846 13.9853C178.43 13.9061 177.98 13.8678 177.497 13.8678H175.277V18.7678ZM173.225 12.0708H177.703C178.492 12.0708 179.21 12.1524 179.861 12.3157C180.511 12.4802 181.063 12.7337 181.52 13.075C181.977 13.4189 182.329 13.853 182.577 14.3811C182.827 14.9092 182.95 15.5449 182.95 16.2857C182.95 17.0413 182.816 17.6906 182.546 18.2323C182.277 18.7753 181.904 19.2168 181.427 19.5594C180.95 19.9007 180.383 20.1543 179.726 20.3187C179.069 20.4832 178.36 20.5649 177.6 20.5649H175.277V27.2186H173.225V12.0708Z" fill="#525156"/>
<path fill-rule="evenodd" clip-rule="evenodd" d="M186.787 25.3358H193.341V27.2181H184.735V12.0703H186.787V25.3358Z" fill="#525156"/>
<mask id="mask0" mask-type="alpha" maskUnits="userSpaceOnUse" x="0" y="-1" width="252" height="41">
<path fill-rule="evenodd" clip-rule="evenodd" d="M0 39.2888H251.966V-0.000488281H0V39.2888Z" fill="white"/>
</mask>
<g mask="url(#mask0)">
<path fill-rule="evenodd" clip-rule="evenodd" d="M194.502 27.2193H196.554V12.0715H194.502V27.2193Z" fill="#525156"/>
<path fill-rule="evenodd" clip-rule="evenodd" d="M202.091 21.6339H207.587L204.849 14.5312L202.091 21.6339ZM199.893 27.2191H197.613L203.978 12.0713H205.845L212.149 27.2191H209.826L208.334 23.4965H201.366L199.893 27.2191Z" fill="#525156"/>
<path fill-rule="evenodd" clip-rule="evenodd" d="M223.556 24.1811H223.596V12.0708H225.65V27.2186H223.058L215.301 14.8523H215.259V27.2186H213.207V12.0708H215.883L223.556 24.1811Z" fill="#525156"/>
<path fill-rule="evenodd" clip-rule="evenodd" d="M240.975 24.8659C240.395 25.6785 239.641 26.3377 238.715 26.8447C237.789 27.3506 236.676 27.6041 235.376 27.6041C234.257 27.6041 233.222 27.4087 232.275 27.0154C231.328 26.6234 230.512 26.0742 229.829 25.368C229.144 24.6619 228.608 23.8196 228.221 22.8426C227.834 21.8668 227.641 20.7933 227.641 19.6233C227.641 18.4397 227.838 17.3588 228.232 16.3818C228.625 15.4047 229.172 14.5699 229.869 13.8773C230.567 13.1872 231.394 12.648 232.348 12.2634C233.303 11.8775 234.339 11.6858 235.459 11.6858C235.957 11.6858 236.461 11.7353 236.973 11.8354C237.485 11.9344 237.975 12.084 238.446 12.2844C238.915 12.4835 239.344 12.7296 239.731 13.0227C240.118 13.3146 240.45 13.6535 240.726 14.0381L239.109 15.3219C238.749 14.8086 238.241 14.3844 237.584 14.0492C236.927 13.7141 236.219 13.5471 235.459 13.5471C234.602 13.5471 233.831 13.7079 233.147 14.0282C232.462 14.3485 231.879 14.7876 231.394 15.3441C230.911 15.9007 230.537 16.545 230.275 17.2796C230.012 18.0155 229.88 18.7959 229.88 19.6233C229.88 20.4791 230.009 21.2781 230.264 22.0189C230.519 22.7622 230.886 23.4065 231.363 23.9569C231.84 24.5048 232.42 24.9377 233.106 25.2506C233.789 25.5634 234.554 25.7205 235.397 25.7205C236.226 25.7205 236.98 25.5498 237.656 25.2073C238.335 24.8659 238.895 24.3663 239.337 23.7095L240.975 24.8659Z" fill="#525156"/>
<path fill-rule="evenodd" clip-rule="evenodd" d="M244.293 25.3358H251.966V27.2181H242.241V12.0703H251.655V13.9316H244.293V18.4681H251.219V20.2861H244.293V25.3358Z" fill="#525156"/>
<path fill-rule="evenodd" clip-rule="evenodd" d="M12.6375 10.5963C10.8598 8.76095 13.5641 5.96959 15.343 7.80493L19.035 11.6141L28.8476 0.671316C30.5258 -1.25308 33.3655 1.38245 31.6873 3.30685L20.5897 15.7214C19.8765 16.6267 18.5555 16.7009 17.7524 15.8723L12.6375 10.5963Z" fill="#FAC200"/>
<path fill-rule="evenodd" clip-rule="evenodd" d="M25.4416 28.6934C27.2192 30.5275 24.5162 33.3189 22.7373 31.4835L19.0441 27.6755L9.2327 38.6184C7.55451 40.5415 4.71478 37.906 6.39297 35.9816L17.4906 23.567C18.2038 22.6617 19.5236 22.5875 20.3267 23.4161L25.4416 28.6934Z" fill="#0094E2"/>
<path fill-rule="evenodd" clip-rule="evenodd" d="M10.2693 26.2501C8.49167 28.0842 5.78619 25.2941 7.56507 23.4587L11.2559 19.6495L0.649747 9.52539C-1.21424 7.79393 1.3402 4.86405 3.20538 6.59551L15.238 18.0454C16.1154 18.7813 16.1873 20.1442 15.3842 20.9728L10.2693 26.2501Z" fill="#DE623D"/>
<path fill-rule="evenodd" clip-rule="evenodd" d="M27.8099 13.0394C29.5888 11.2053 32.2942 13.9942 30.5154 15.8295L26.8234 19.64L37.4295 29.7629C39.2947 31.4943 36.7402 34.4242 34.8751 32.6927L22.8425 21.2428C21.965 20.507 21.8931 19.1453 22.6962 18.3167L27.8099 13.0394Z" fill="#5CB518"/>
</g>
</svg>
