<?xml version="1.0" encoding="UTF-8"?>
<svg width="40px" height="41px" viewBox="0 0 40 41" version="1.1" xmlns="http://www.w3.org/2000/svg" xmlns:xlink="http://www.w3.org/1999/xlink">
    <title>BF0AE4FF-6956-4290-AFCB-8AD223FFC1D4</title>
    <g id="Widget" stroke="none" stroke-width="1" fill="none" fill-rule="evenodd">
        <g id="GlobalPassWidgetNew-20200921" transform="translate(-509.000000, -3074.000000)">
            <g id="Group-31" transform="translate(406.000000, 2763.000000)">
                <g id="Icons/note1-Copy" transform="translate(103.000000, 311.405063)">
                    <path d="M15.8847372,20.4116881 L13.3223071,22.8790531 C13.2198099,22.9678782 13.0968133,23.0172255 12.9635669,23.0172255 C12.8303205,23.0172255 12.6970742,22.9678782 12.594577,22.8790531 C12.3998323,22.6816639 12.3998323,22.3648542 12.594577,22.1783214 L15.1570071,19.7109564 C15.3620015,19.5135672 15.6899925,19.5135672 15.8847372,19.7109564 C16.0897316,19.8984762 16.0897316,20.2142989 15.8847372,20.4116881 M10.4011368,22.405319 C10.2678904,22.405319 10.1346441,22.3559717 10.0321469,22.2572771 C9.83740216,22.0697573 9.83740216,21.7529477 10.0321469,21.5565454 L14.5215244,17.2435914 C14.7162691,17.0462022 15.0442602,17.0462022 15.2492546,17.2435914 C15.4439993,17.4311112 15.4439993,17.7469339 15.2492546,17.9443231 L10.759877,22.2572771 C10.6573798,22.3559717 10.5343832,22.405319 10.4011368,22.405319 M9.39666418,19.7899121 C9.19166977,19.6023924 9.19166977,19.2865696 9.39666418,19.0891804 L11.9590943,16.6218155 C12.153839,16.4342957 12.48183,16.4342957 12.6868245,16.6218155 C12.8815691,16.8192047 12.8815691,17.1350274 12.6868245,17.3225471 L10.1243943,19.7899121 C10.0218971,19.8886067 9.88865076,19.937954 9.7554044,19.937954 C9.62215803,19.937954 9.49916139,19.8886067 9.39666418,19.7899121 M33.4425084,16.483643 C32.8275252,16.1875592 31.2695676,15.625 28.3278979,15.625 L26.1549571,15.625 C23.5822773,15.625 21.9218226,16.6612933 19.9333768,16.6612933 C17.944931,16.6612933 16.2947261,15.625 13.7220462,15.625 L11.5491055,15.625 C8.73043235,15.625 7.16222512,16.1875592 6.55749161,16.483643 C6.37299665,16.5724682 6.25,16.7501184 6.25,16.9573771 L6.25,17.6581087 C6.25,17.8949758 6.61898994,18.1614512 6.88548267,18.1910596 L7.53121506,20.5202521 C8.11544912,22.9974866 10.2576407,25 12.8303205,25 L13.6912971,25 C15.6489937,25 17.2991987,23.8561296 18.0064294,22.1980603 L18.1909243,21.6453706 C18.8981551,19.2569613 19.2876444,19.0497026 19.9948751,19.0200942 C20.7021059,19.0497026 21.1018449,19.2569613 21.7988259,21.6453706 L21.9833209,22.1980603 C22.6905516,23.8561296 24.3407566,25 26.3087029,25 L27.1594297,25 C29.7321096,25 31.8743012,22.9678782 32.4585352,20.5202521 L33.1042676,18.1910596 C33.3502609,18.1614512 33.75,17.8949758 33.75,17.6581087 L33.75,16.9573771 C33.75,16.7501184 33.6270034,16.5724682 33.4425084,16.483643" id="Fill-1" fill="#000000"></path>
                    <g id="Group-24-Copy" stroke="#F85151" stroke-width="3">
                        <circle id="Oval" cx="20" cy="20" r="18.5"></circle>
                        <line x1="7.1875" y1="32.8125" x2="33.125" y2="6.875" id="Line" stroke-linecap="square"></line>
                        <line x1="7.1875" y1="32.8125" x2="33.125" y2="6.875" id="Line" stroke-linecap="square"></line>
                    </g>
                </g>
            </g>
        </g>
    </g>
</svg>